<svg width="20" height="19" viewBox="0 0 20 19" fill="none" xmlns="http://www.w3.org/2000/svg">
<path d="M9.67813 13.7453C9.51682 13.7453 9.3656 13.7204 9.22446 13.6705C9.08332 13.6214 8.95227 13.5375 8.83129 13.4187L4.47613 9.14375C4.25434 8.92604 4.14345 8.64896 4.14345 8.3125C4.14345 7.97604 4.25434 7.69896 4.47613 7.48125C4.69792 7.26354 4.98504 7.14954 5.33749 7.13925C5.69074 7.12975 5.97826 7.23385 6.20005 7.45156L8.46836 9.67812V1.1875C8.46836 0.851042 8.5845 0.568813 8.81677 0.340813C9.04824 0.113604 9.33536 0 9.67813 0C10.0209 0 10.3084 0.113604 10.5407 0.340813C10.7722 0.568813 10.8879 0.851042 10.8879 1.1875V9.67812L13.1562 7.45156C13.378 7.23385 13.6655 7.12975 14.0188 7.13925C14.3712 7.14954 14.6583 7.26354 14.8801 7.48125C15.1019 7.69896 15.2128 7.97604 15.2128 8.3125C15.2128 8.64896 15.1019 8.92604 14.8801 9.14375L10.525 13.4187C10.404 13.5375 10.2729 13.6214 10.1318 13.6705C9.99065 13.7204 9.83943 13.7453 9.67813 13.7453ZM2.41953 19C1.75416 19 1.18476 18.7676 0.711342 18.3029C0.237114 17.8374 0 17.2781 0 16.625V14.25C0 13.9135 0.115734 13.6313 0.347203 13.4033C0.579478 13.1761 0.866999 13.0625 1.20977 13.0625C1.55253 13.0625 1.84005 13.1761 2.07233 13.4033C2.3038 13.6313 2.41953 13.9135 2.41953 14.25V16.625H16.9367V14.25C16.9367 13.9135 17.0529 13.6313 17.2851 13.4033C17.5166 13.1761 17.8037 13.0625 18.1465 13.0625C18.4893 13.0625 18.7764 13.1761 19.0078 13.4033C19.2401 13.6313 19.3563 13.9135 19.3563 14.25V16.625C19.3563 17.2781 19.1195 17.8374 18.6461 18.3029C18.1719 18.7676 17.6021 19 16.9367 19H2.41953Z" fill="white"/>
</svg>
