<svg width="52" height="52" viewBox="0 0 52 52" fill="none" xmlns="http://www.w3.org/2000/svg">
<g filter="url(#filter0_d_259_9408)">
<rect x="13" y="13" width="26" height="26" rx="13" fill="#454751"/>
<path fill-rule="evenodd" clip-rule="evenodd" d="M26.4912 22.3568L21.2051 27.643L20.4841 30.3321L20.0098 32.1037C19.9967 32.1532 19.9967 32.2053 20.01 32.2547C20.0233 32.3042 20.0494 32.3493 20.0856 32.3855C20.1218 32.4217 20.1669 32.4478 20.2164 32.4611C20.2658 32.4744 20.3179 32.4745 20.3674 32.4613L22.1378 31.9865L24.8276 31.2654H24.8282L30.1143 25.9793L26.4918 22.3568H26.4912ZM32.3001 22.9693L29.5024 20.171C29.4483 20.1168 29.384 20.0738 29.3132 20.0445C29.2425 20.0151 29.1666 20 29.09 20C29.0134 20 28.9375 20.0151 28.8668 20.0445C28.796 20.0738 28.7317 20.1168 28.6776 20.171L27.2338 21.6142L30.8569 25.2373L32.3001 23.7935C32.3543 23.7394 32.3973 23.6751 32.4267 23.6044C32.456 23.5336 32.4711 23.4577 32.4711 23.3811C32.4711 23.3045 32.456 23.2286 32.4267 23.1579C32.3973 23.0871 32.3543 23.0228 32.3001 22.9687" fill="#BEC2C9"/>
</g>
<defs>
<filter id="filter0_d_259_9408" x="0.625" y="0.625" width="50.75" height="50.75" filterUnits="userSpaceOnUse" color-interpolation-filters="sRGB">
<feFlood flood-opacity="0" result="BackgroundImageFix"/>
<feColorMatrix in="SourceAlpha" type="matrix" values="0 0 0 0 0 0 0 0 0 0 0 0 0 0 0 0 0 0 127 0" result="hardAlpha"/>
<feOffset/>
<feGaussianBlur stdDeviation="6.1875"/>
<feComposite in2="hardAlpha" operator="out"/>
<feColorMatrix type="matrix" values="0 0 0 0 0.560116 0 0 0 0 0.560116 0 0 0 0 0.560116 0 0 0 0.2 0"/>
<feBlend mode="normal" in2="BackgroundImageFix" result="effect1_dropShadow_259_9408"/>
<feBlend mode="normal" in="SourceGraphic" in2="effect1_dropShadow_259_9408" result="shape"/>
</filter>
</defs>
</svg>
