<svg width="15" height="18" viewBox="0 0 15 18" fill="none" xmlns="http://www.w3.org/2000/svg">
<path d="M7.5 2.8125V0L3.75 3.75L7.5 7.5V4.6875C10.6031 4.6875 13.125 7.20937 13.125 10.3125C13.125 13.0969 11.0906 15.4031 8.4375 15.8531V17.7469C12.1406 17.2875 15 14.1375 15 10.3125C15 6.16875 11.6438 2.8125 7.5 2.8125Z" fill="white"/>
<path d="M1.875 10.3126C1.875 8.76572 2.50313 7.35947 3.525 6.3376L2.19375 5.00635C0.84375 6.36572 0 8.24072 0 10.3126C0 14.1376 2.85938 17.2876 6.5625 17.747V15.8532C3.90938 15.4032 1.875 13.097 1.875 10.3126Z" fill="white"/>
</svg>
